<svg width="671" height="579" viewBox="0 0 671 579" fill="none" xmlns="http://www.w3.org/2000/svg">
<g filter="url(#filter0_d_101_8)">
<path d="M132.944 209.807L119.393 213.642C118.541 211.384 117.284 209.189 115.622 207.058C114.002 204.885 111.786 203.095 108.974 201.689C106.161 200.283 102.561 199.58 98.1713 199.58C92.1628 199.58 87.1557 200.964 83.15 203.734C79.187 206.462 77.2054 209.935 77.2054 214.153C77.2054 217.903 78.5691 220.865 81.2963 223.038C84.0236 225.212 88.285 227.023 94.0804 228.472L108.654 232.051C117.433 234.182 123.974 237.442 128.278 241.831C132.582 246.178 134.734 251.781 134.734 258.642C134.734 264.267 133.115 269.295 129.876 273.727C126.68 278.159 122.205 281.653 116.453 284.21C110.7 286.767 104.009 288.045 96.3816 288.045C86.3674 288.045 78.079 285.872 71.5165 281.526C64.954 277.179 60.7992 270.83 59.052 262.477L73.3702 258.898C74.7338 264.182 77.312 268.145 81.1046 270.787C84.9398 273.429 89.9469 274.75 96.1259 274.75C103.157 274.75 108.74 273.259 112.873 270.276C117.049 267.25 119.137 263.628 119.137 259.409C119.137 256 117.944 253.145 115.558 250.844C113.171 248.5 109.507 246.753 104.563 245.602L88.1998 241.767C79.2083 239.636 72.6032 236.334 68.3844 231.859C64.2083 227.342 62.1202 221.696 62.1202 214.92C62.1202 209.381 63.6756 204.48 66.7864 200.219C69.9398 195.957 74.2225 192.612 79.6344 190.183C85.089 187.754 91.2679 186.54 98.1713 186.54C107.887 186.54 115.515 188.67 121.055 192.932C126.637 197.193 130.6 202.818 132.944 209.807ZM186.334 288.301C180.112 288.301 174.466 287.129 169.395 284.786C164.324 282.399 160.297 278.969 157.314 274.494C154.331 269.977 152.839 264.523 152.839 258.131C152.839 252.506 153.947 247.946 156.163 244.452C158.379 240.915 161.341 238.145 165.048 236.142C168.756 234.139 172.846 232.648 177.321 231.668C181.838 230.645 186.376 229.835 190.936 229.239C196.902 228.472 201.738 227.896 205.446 227.513C209.196 227.087 211.923 226.384 213.628 225.403C215.375 224.423 216.248 222.719 216.248 220.29V219.778C216.248 213.472 214.523 208.571 211.071 205.077C207.662 201.582 202.484 199.835 195.538 199.835C188.336 199.835 182.69 201.412 178.599 204.565C174.508 207.719 171.632 211.085 169.97 214.665L155.652 209.551C158.209 203.585 161.618 198.94 165.879 195.616C170.183 192.25 174.871 189.906 179.942 188.585C185.055 187.222 190.084 186.54 195.027 186.54C198.18 186.54 201.802 186.923 205.893 187.69C210.027 188.415 214.011 189.928 217.846 192.229C221.724 194.53 224.942 198.003 227.498 202.648C230.055 207.293 231.334 213.514 231.334 221.312V286H216.248V272.705H215.481C214.459 274.835 212.754 277.115 210.368 279.544C207.981 281.973 204.807 284.04 200.844 285.744C196.881 287.449 192.044 288.301 186.334 288.301ZM188.635 274.75C194.601 274.75 199.629 273.578 203.72 271.234C207.854 268.891 210.964 265.865 213.052 262.158C215.183 258.45 216.248 254.551 216.248 250.46V236.653C215.609 237.42 214.203 238.124 212.03 238.763C209.899 239.359 207.427 239.892 204.615 240.361C201.845 240.787 199.139 241.17 196.497 241.511C193.898 241.81 191.788 242.065 190.169 242.278C186.248 242.79 182.584 243.621 179.175 244.771C175.808 245.879 173.081 247.562 170.993 249.821C168.947 252.037 167.925 255.062 167.925 258.898C167.925 264.139 169.863 268.102 173.741 270.787C177.662 273.429 182.626 274.75 188.635 274.75ZM258.867 286V187.818H273.441V203.159H274.72C276.765 197.918 280.068 193.848 284.627 190.95C289.187 188.01 294.663 186.54 301.055 186.54C307.532 186.54 312.923 188.01 317.227 190.95C321.573 193.848 324.961 197.918 327.39 203.159H328.413C330.927 198.088 334.698 194.061 339.727 191.078C344.755 188.053 350.785 186.54 357.816 186.54C366.595 186.54 373.775 189.288 379.357 194.786C384.94 200.24 387.731 208.741 387.731 220.29V286H372.646V220.29C372.646 213.045 370.664 207.868 366.701 204.757C362.738 201.646 358.072 200.091 352.703 200.091C345.799 200.091 340.451 202.179 336.659 206.355C332.866 210.489 330.97 215.73 330.97 222.08V286H315.629V218.756C315.629 213.173 313.818 208.678 310.195 205.268C306.573 201.817 301.907 200.091 296.197 200.091C292.276 200.091 288.612 201.135 285.203 203.223C281.836 205.311 279.109 208.209 277.021 211.916C274.975 215.581 273.953 219.821 273.953 224.636V286H258.867ZM417.358 286V155.091H432.443V203.415H433.722C434.83 201.71 436.364 199.537 438.324 196.895C440.327 194.21 443.182 191.824 446.889 189.736C450.639 187.605 455.71 186.54 462.102 186.54C470.369 186.54 477.656 188.607 483.963 192.74C490.27 196.874 495.192 202.733 498.729 210.318C502.266 217.903 504.034 226.852 504.034 237.165C504.034 247.562 502.266 256.575 498.729 264.203C495.192 271.788 490.291 277.669 484.027 281.845C477.763 285.979 470.54 288.045 462.358 288.045C456.051 288.045 451.002 287.001 447.209 284.913C443.416 282.783 440.497 280.375 438.452 277.69C436.406 274.963 434.83 272.705 433.722 270.915H431.932V286H417.358ZM432.188 236.909C432.188 244.324 433.274 250.865 435.448 256.533C437.621 262.158 440.796 266.568 444.972 269.764C449.148 272.918 454.262 274.494 460.313 274.494C466.619 274.494 471.882 272.832 476.101 269.509C480.362 266.142 483.558 261.625 485.689 255.957C487.862 250.247 488.949 243.898 488.949 236.909C488.949 230.006 487.884 223.784 485.753 218.244C483.665 212.662 480.49 208.251 476.229 205.013C472.01 201.732 466.705 200.091 460.313 200.091C454.176 200.091 449.02 201.646 444.844 204.757C440.668 207.825 437.514 212.129 435.384 217.669C433.253 223.166 432.188 229.58 432.188 236.909ZM527.11 286V187.818H542.195V286H527.11ZM534.78 171.455C531.84 171.455 529.304 170.453 527.173 168.45C525.085 166.447 524.041 164.04 524.041 161.227C524.041 158.415 525.085 156.007 527.173 154.004C529.304 152.001 531.84 151 534.78 151C537.72 151 540.235 152.001 542.323 154.004C544.453 156.007 545.519 158.415 545.519 161.227C545.519 164.04 544.453 166.447 542.323 168.45C540.235 170.453 537.72 171.455 534.78 171.455ZM612.523 187.818V200.602H561.643V187.818H612.523ZM576.472 164.295H591.557V257.875C591.557 262.136 592.175 265.332 593.411 267.463C594.689 269.551 596.309 270.957 598.269 271.682C600.272 272.364 602.381 272.705 604.597 272.705C606.259 272.705 607.623 272.619 608.688 272.449C609.753 272.236 610.606 272.065 611.245 271.938L614.313 285.489C613.29 285.872 611.863 286.256 610.03 286.639C608.198 287.065 605.876 287.278 603.063 287.278C598.802 287.278 594.626 286.362 590.535 284.53C586.486 282.697 583.12 279.906 580.435 276.156C577.793 272.406 576.472 267.676 576.472 261.966V164.295Z" fill="black"/>
</g>
<g filter="url(#filter1_d_101_8)">
<path d="M35.3136 431V321.909H51.5067V338.955H52.9272C55.1999 333.131 58.8694 328.609 63.9357 325.389C69.002 322.122 75.0863 320.489 82.1886 320.489C89.3855 320.489 95.3751 322.122 100.157 325.389C104.987 328.609 108.751 333.131 111.45 338.955H112.586C115.38 333.32 119.57 328.846 125.157 325.531C130.744 322.17 137.444 320.489 145.257 320.489C155.011 320.489 162.989 323.543 169.191 329.651C175.394 335.711 178.495 345.157 178.495 357.989V431H161.734V357.989C161.734 349.939 159.532 344.187 155.129 340.73C150.725 337.274 145.541 335.545 139.575 335.545C131.904 335.545 125.962 337.866 121.748 342.506C117.534 347.098 115.427 352.922 115.427 359.977V431H98.3817V356.284C98.3817 350.081 96.3694 345.086 92.3448 341.298C88.3202 337.463 83.1355 335.545 76.7908 335.545C72.4348 335.545 68.3628 336.705 64.5749 339.026C60.8344 341.346 57.8041 344.565 55.484 348.685C53.2113 352.757 52.0749 357.468 52.0749 362.818V431H35.3136ZM209.142 431V321.909H225.903V431H209.142ZM217.664 303.727C214.397 303.727 211.58 302.615 209.213 300.389C206.893 298.164 205.733 295.489 205.733 292.364C205.733 289.239 206.893 286.563 209.213 284.338C211.58 282.113 214.397 281 217.664 281C220.931 281 223.725 282.113 226.045 284.338C228.413 286.563 229.596 289.239 229.596 292.364C229.596 295.489 228.413 298.164 226.045 300.389C223.725 302.615 220.931 303.727 217.664 303.727ZM333.875 346.341L318.819 350.602C317.872 348.093 316.475 345.654 314.628 343.287C312.829 340.872 310.367 338.884 307.242 337.321C304.117 335.759 300.116 334.977 295.239 334.977C288.563 334.977 282.999 336.516 278.549 339.594C274.145 342.624 271.944 346.483 271.944 351.17C271.944 355.337 273.459 358.628 276.489 361.043C279.519 363.457 284.254 365.47 290.694 367.08L306.887 371.057C316.641 373.424 323.908 377.046 328.691 381.923C333.473 386.753 335.864 392.979 335.864 400.602C335.864 406.852 334.065 412.439 330.466 417.364C326.915 422.288 321.944 426.17 315.551 429.011C309.159 431.852 301.726 433.273 293.25 433.273C282.123 433.273 272.914 430.858 265.623 426.028C258.331 421.199 253.714 414.144 251.773 404.864L267.682 400.886C269.197 406.758 272.062 411.161 276.276 414.097C280.537 417.032 286.101 418.5 292.966 418.5C300.779 418.5 306.981 416.843 311.574 413.528C316.214 410.167 318.534 406.142 318.534 401.455C318.534 397.667 317.209 394.494 314.557 391.938C311.906 389.333 307.834 387.392 302.341 386.114L284.159 381.852C274.169 379.485 266.83 375.815 262.142 370.844C257.502 365.825 255.182 359.551 255.182 352.023C255.182 345.867 256.91 340.422 260.367 335.688C263.871 330.953 268.629 327.236 274.642 324.537C280.703 321.838 287.569 320.489 295.239 320.489C306.034 320.489 314.51 322.856 320.665 327.591C326.868 332.326 331.271 338.576 333.875 346.341ZM377.856 365.375V431H361.095V285.545H377.856V338.955H379.277C381.833 333.32 385.669 328.846 390.782 325.531C395.943 322.17 402.809 320.489 411.379 320.489C418.813 320.489 425.323 321.98 430.91 324.963C436.497 327.899 440.83 332.42 443.907 338.528C447.032 344.589 448.595 352.307 448.595 361.682V431H431.833V362.818C431.833 354.153 429.584 347.454 425.086 342.719C420.636 337.937 414.457 335.545 406.549 335.545C401.057 335.545 396.133 336.705 391.777 339.026C387.468 341.346 384.059 344.731 381.549 349.182C379.087 353.633 377.856 359.03 377.856 365.375ZM479.259 431V321.909H495.452V338.386H496.588C498.577 332.989 502.176 328.609 507.384 325.247C512.592 321.885 518.463 320.205 524.998 320.205C526.229 320.205 527.767 320.228 529.614 320.276C531.461 320.323 532.857 320.394 533.804 320.489V337.534C533.236 337.392 531.934 337.179 529.898 336.895C527.909 336.563 525.802 336.398 523.577 336.398C518.274 336.398 513.539 337.51 509.373 339.736C505.253 341.914 501.986 344.944 499.571 348.827C497.204 352.662 496.02 357.042 496.02 361.966V431H479.259ZM585.775 433.557C578.862 433.557 572.589 432.255 566.954 429.651C561.32 426.999 556.845 423.188 553.531 418.216C550.217 413.197 548.559 407.136 548.559 400.034C548.559 393.784 549.79 388.718 552.252 384.835C554.715 380.905 558.005 377.828 562.125 375.602C566.244 373.377 570.789 371.72 575.761 370.631C580.78 369.494 585.823 368.595 590.889 367.932C597.518 367.08 602.892 366.44 607.011 366.014C611.178 365.541 614.208 364.759 616.102 363.67C618.043 362.581 619.014 360.687 619.014 357.989V357.42C619.014 350.413 617.096 344.968 613.261 341.085C609.473 337.203 603.72 335.261 596.002 335.261C588.001 335.261 581.727 337.013 577.181 340.517C572.636 344.021 569.44 347.761 567.593 351.739L551.684 346.057C554.525 339.428 558.313 334.267 563.048 330.574C567.83 326.833 573.038 324.229 578.673 322.761C584.355 321.246 589.942 320.489 595.434 320.489C598.938 320.489 602.963 320.915 607.508 321.767C612.101 322.572 616.528 324.253 620.789 326.81C625.098 329.366 628.673 333.225 631.514 338.386C634.355 343.547 635.775 350.46 635.775 359.125V431H619.014V416.227H618.162C617.025 418.595 615.131 421.128 612.48 423.827C609.828 426.526 606.301 428.822 601.897 430.716C597.494 432.61 592.12 433.557 585.775 433.557ZM588.332 418.5C594.961 418.5 600.548 417.198 605.093 414.594C609.686 411.99 613.143 408.628 615.463 404.509C617.83 400.389 619.014 396.057 619.014 391.511V376.17C618.304 377.023 616.741 377.804 614.326 378.514C611.959 379.177 609.213 379.769 606.088 380.29C603.01 380.763 600.003 381.189 597.068 381.568C594.18 381.9 591.836 382.184 590.037 382.42C585.681 382.989 581.609 383.912 577.821 385.19C574.08 386.421 571.05 388.292 568.73 390.801C566.457 393.263 565.321 396.625 565.321 400.886C565.321 406.71 567.475 411.114 571.784 414.097C576.14 417.032 581.656 418.5 588.332 418.5Z" fill="#30D35D"/>
</g>
<defs>
<filter id="filter0_d_101_8" x="55.052" y="151" width="563.261" height="145.301" filterUnits="userSpaceOnUse" color-interpolation-filters="sRGB">
<feFlood flood-opacity="0" result="BackgroundImageFix"/>
<feColorMatrix in="SourceAlpha" type="matrix" values="0 0 0 0 0 0 0 0 0 0 0 0 0 0 0 0 0 0 127 0" result="hardAlpha"/>
<feOffset dy="4"/>
<feGaussianBlur stdDeviation="2"/>
<feComposite in2="hardAlpha" operator="out"/>
<feColorMatrix type="matrix" values="0 0 0 0 0 0 0 0 0 0 0 0 0 0 0 0 0 0 0.25 0"/>
<feBlend mode="normal" in2="BackgroundImageFix" result="effect1_dropShadow_101_8"/>
<feBlend mode="normal" in="SourceGraphic" in2="effect1_dropShadow_101_8" result="shape"/>
</filter>
<filter id="filter1_d_101_8" x="30.3136" y="280" width="610.462" height="162.557" filterUnits="userSpaceOnUse" color-interpolation-filters="sRGB">
<feFlood flood-opacity="0" result="BackgroundImageFix"/>
<feColorMatrix in="SourceAlpha" type="matrix" values="0 0 0 0 0 0 0 0 0 0 0 0 0 0 0 0 0 0 127 0" result="hardAlpha"/>
<feOffset dy="4"/>
<feGaussianBlur stdDeviation="2.5"/>
<feComposite in2="hardAlpha" operator="out"/>
<feColorMatrix type="matrix" values="0 0 0 0 0 0 0 0 0 0 0 0 0 0 0 0 0 0 0.25 0"/>
<feBlend mode="normal" in2="BackgroundImageFix" result="effect1_dropShadow_101_8"/>
<feBlend mode="normal" in="SourceGraphic" in2="effect1_dropShadow_101_8" result="shape"/>
</filter>
</defs>
</svg>
